%TF.GenerationSoftware,KiCad,Pcbnew,10.0.1*%
%TF.CreationDate,2026-06-26T16:38:34+09:00*%
%TF.ProjectId,gw-v41-plus,67772d76-3431-42d7-906c-75732e6b6963,rev?*%
%TF.SameCoordinates,Original*%
%TF.FileFunction,Soldermask,Bot*%
%TF.FilePolarity,Negative*%
%FSLAX46Y46*%
G04 Gerber Fmt 4.6, Leading zero omitted, Abs format (unit mm)*
G04 Created by KiCad (PCBNEW 10.0.1) date 2026-06-26 16:38:34*
%MOMM*%
%LPD*%
G01*
G04 APERTURE LIST*
G04 Aperture macros list*
%AMRoundRect*
0 Rectangle with rounded corners*
0 $1 Rounding radius*
0 $2 $3 $4 $5 $6 $7 $8 $9 X,Y pos of 4 corners*
0 Add a 4 corners polygon primitive as box body*
4,1,4,$2,$3,$4,$5,$6,$7,$8,$9,$2,$3,0*
0 Add four circle primitives for the rounded corners*
1,1,$1+$1,$2,$3*
1,1,$1+$1,$4,$5*
1,1,$1+$1,$6,$7*
1,1,$1+$1,$8,$9*
0 Add four rect primitives between the rounded corners*
20,1,$1+$1,$2,$3,$4,$5,0*
20,1,$1+$1,$4,$5,$6,$7,0*
20,1,$1+$1,$6,$7,$8,$9,0*
20,1,$1+$1,$8,$9,$2,$3,0*%
G04 Aperture macros list end*
%ADD10R,0.800000X0.800000*%
%ADD11C,0.800000*%
%ADD12R,1.700000X1.700000*%
%ADD13C,1.700000*%
%ADD14C,0.650000*%
%ADD15O,1.000000X2.100000*%
%ADD16O,1.000000X1.600000*%
%ADD17RoundRect,0.250000X0.600000X-0.600000X0.600000X0.600000X-0.600000X0.600000X-0.600000X-0.600000X0*%
%ADD18R,1.000000X1.000000*%
%ADD19C,5.400000*%
%ADD20C,2.700000*%
%ADD21R,4.500000X2.000000*%
%ADD22O,4.000000X2.000000*%
%ADD23O,2.000000X4.000000*%
G04 APERTURE END LIST*
D10*
%TO.C,J8*%
X168300000Y-115900000D03*
D11*
X167030000Y-115900000D03*
X168300000Y-114630000D03*
X167030000Y-114630000D03*
X168300000Y-113360000D03*
X167030000Y-113360000D03*
X168300000Y-112090000D03*
X167030000Y-112090000D03*
X168300000Y-110820000D03*
X167030000Y-110820000D03*
%TD*%
D12*
%TO.C,JP1*%
X179980424Y-103940000D03*
D13*
X179980424Y-101400000D03*
%TD*%
D12*
%TO.C,J4*%
X163899712Y-123745000D03*
D13*
X163899712Y-126285000D03*
%TD*%
D14*
%TO.C,J1*%
X172004305Y-124364305D03*
X177784305Y-124364305D03*
D15*
X170574305Y-123834305D03*
D16*
X170574305Y-128014305D03*
D15*
X179214305Y-123834305D03*
D16*
X179214305Y-128014305D03*
%TD*%
D17*
%TO.C,J7*%
X120280000Y-92250000D03*
D13*
X120280000Y-89710000D03*
X122820000Y-92250000D03*
X122820000Y-89710000D03*
X125360000Y-89710000D03*
X127900000Y-92250000D03*
X127900000Y-89710000D03*
X130440000Y-92250000D03*
X130440000Y-89710000D03*
X132980000Y-92250000D03*
X132980000Y-89710000D03*
X135520000Y-92250000D03*
X135520000Y-89710000D03*
X138060000Y-92250000D03*
X138060000Y-89710000D03*
X140600000Y-92250000D03*
X140600000Y-89710000D03*
X143140000Y-92250000D03*
X143140000Y-89710000D03*
X145680000Y-92250000D03*
X145680000Y-89710000D03*
X148220000Y-92250000D03*
X148220000Y-89710000D03*
X150760000Y-92250000D03*
X150760000Y-89710000D03*
X153300000Y-92250000D03*
X153300000Y-89710000D03*
X155840000Y-92250000D03*
X155840000Y-89710000D03*
X158380000Y-92250000D03*
X158380000Y-89710000D03*
X160920000Y-92250000D03*
X160920000Y-89710000D03*
%TD*%
D12*
%TO.C,J10*%
X140600000Y-95377000D03*
D13*
X143140000Y-95377000D03*
%TD*%
D12*
%TO.C,J6*%
X158169305Y-116064305D03*
D13*
X155629305Y-116064305D03*
X158169305Y-113524305D03*
X155629305Y-113524305D03*
X158169305Y-110984305D03*
X155629305Y-110984305D03*
X158169305Y-108444305D03*
X155629305Y-108444305D03*
X158169305Y-105904305D03*
X155629305Y-105904305D03*
X158169305Y-103364305D03*
X155629305Y-103364305D03*
%TD*%
D18*
%TO.C,TP1*%
X184000000Y-106400000D03*
%TD*%
D19*
%TO.C,H2*%
X187946026Y-85251794D03*
%TD*%
D20*
%TO.C,H3*%
X2975000Y-16875000D03*
%TD*%
%TO.C,H1*%
X2975000Y-2975000D03*
%TD*%
%TO.C,H2*%
X2975000Y-9925000D03*
%TD*%
D19*
%TO.C,H4*%
X188000000Y-120000000D03*
%TD*%
%TO.C,H1*%
X107250521Y-84781098D03*
%TD*%
D20*
%TO.C,H4*%
X2975000Y-23825000D03*
%TD*%
D12*
%TO.C,J5*%
X171014305Y-91500000D03*
D13*
X173514305Y-91500000D03*
X176014305Y-91500000D03*
X178514305Y-91500000D03*
%TD*%
D12*
%TO.C,J3*%
X167500000Y-123745000D03*
D13*
X167500000Y-126285000D03*
%TD*%
D12*
%TO.C,J11*%
X178514305Y-95099822D03*
D13*
X181054305Y-95099822D03*
%TD*%
D19*
%TO.C,H3*%
X107000000Y-120000000D03*
%TD*%
D12*
%TO.C,J9*%
X117740000Y-95377000D03*
D13*
X120280000Y-95377000D03*
X122820000Y-95377000D03*
X125360000Y-95377000D03*
X127900000Y-95377000D03*
X130440000Y-95377000D03*
X132980000Y-95377000D03*
X135520000Y-95377000D03*
%TD*%
D21*
%TO.C,J2*%
X118000000Y-116770000D03*
D22*
X118000000Y-122970000D03*
D23*
X122700000Y-119970000D03*
%TD*%
M02*
