%TF.GenerationSoftware,KiCad,Pcbnew,10.0.1*%
%TF.CreationDate,2026-06-26T16:38:33+09:00*%
%TF.ProjectId,gw-v41-plus,67772d76-3431-42d7-906c-75732e6b6963,rev?*%
%TF.SameCoordinates,Original*%
%TF.FileFunction,Paste,Top*%
%TF.FilePolarity,Positive*%
%FSLAX46Y46*%
G04 Gerber Fmt 4.6, Leading zero omitted, Abs format (unit mm)*
G04 Created by KiCad (PCBNEW 10.0.1) date 2026-06-26 16:38:33*
%MOMM*%
%LPD*%
G01*
G04 APERTURE LIST*
G04 Aperture macros list*
%AMRoundRect*
0 Rectangle with rounded corners*
0 $1 Rounding radius*
0 $2 $3 $4 $5 $6 $7 $8 $9 X,Y pos of 4 corners*
0 Add a 4 corners polygon primitive as box body*
4,1,4,$2,$3,$4,$5,$6,$7,$8,$9,$2,$3,0*
0 Add four circle primitives for the rounded corners*
1,1,$1+$1,$2,$3*
1,1,$1+$1,$4,$5*
1,1,$1+$1,$6,$7*
1,1,$1+$1,$8,$9*
0 Add four rect primitives between the rounded corners*
20,1,$1+$1,$2,$3,$4,$5,0*
20,1,$1+$1,$4,$5,$6,$7,0*
20,1,$1+$1,$6,$7,$8,$9,0*
20,1,$1+$1,$8,$9,$2,$3,0*%
G04 Aperture macros list end*
%ADD10RoundRect,0.200000X-0.275000X0.200000X-0.275000X-0.200000X0.275000X-0.200000X0.275000X0.200000X0*%
%ADD11RoundRect,0.200000X0.275000X-0.200000X0.275000X0.200000X-0.275000X0.200000X-0.275000X-0.200000X0*%
%ADD12RoundRect,0.250000X-0.475000X0.250000X-0.475000X-0.250000X0.475000X-0.250000X0.475000X0.250000X0*%
%ADD13RoundRect,0.150000X0.150000X-0.825000X0.150000X0.825000X-0.150000X0.825000X-0.150000X-0.825000X0*%
%ADD14RoundRect,0.225000X0.225000X0.250000X-0.225000X0.250000X-0.225000X-0.250000X0.225000X-0.250000X0*%
%ADD15RoundRect,0.250000X0.475000X-0.250000X0.475000X0.250000X-0.475000X0.250000X-0.475000X-0.250000X0*%
%ADD16RoundRect,0.225000X0.250000X-0.225000X0.250000X0.225000X-0.250000X0.225000X-0.250000X-0.225000X0*%
%ADD17RoundRect,0.150000X-0.150000X-0.575000X0.150000X-0.575000X0.150000X0.575000X-0.150000X0.575000X0*%
%ADD18RoundRect,0.075000X-0.075000X-0.650000X0.075000X-0.650000X0.075000X0.650000X-0.075000X0.650000X0*%
%ADD19RoundRect,0.218750X-0.218750X-0.256250X0.218750X-0.256250X0.218750X0.256250X-0.218750X0.256250X0*%
%ADD20RoundRect,0.075000X-0.662500X-0.075000X0.662500X-0.075000X0.662500X0.075000X-0.662500X0.075000X0*%
%ADD21RoundRect,0.075000X-0.075000X-0.662500X0.075000X-0.662500X0.075000X0.662500X-0.075000X0.662500X0*%
%ADD22RoundRect,0.200000X-0.200000X-0.275000X0.200000X-0.275000X0.200000X0.275000X-0.200000X0.275000X0*%
%ADD23RoundRect,0.225000X-0.250000X0.225000X-0.250000X-0.225000X0.250000X-0.225000X0.250000X0.225000X0*%
%ADD24RoundRect,0.218750X0.256250X-0.218750X0.256250X0.218750X-0.256250X0.218750X-0.256250X-0.218750X0*%
%ADD25RoundRect,0.225000X-0.225000X-0.250000X0.225000X-0.250000X0.225000X0.250000X-0.225000X0.250000X0*%
%ADD26RoundRect,0.375000X0.625000X0.375000X-0.625000X0.375000X-0.625000X-0.375000X0.625000X-0.375000X0*%
%ADD27RoundRect,0.500000X0.500000X1.400000X-0.500000X1.400000X-0.500000X-1.400000X0.500000X-1.400000X0*%
%ADD28RoundRect,0.250000X-0.950000X0.750000X-0.950000X-0.750000X0.950000X-0.750000X0.950000X0.750000X0*%
%ADD29RoundRect,0.250000X0.625000X-0.375000X0.625000X0.375000X-0.625000X0.375000X-0.625000X-0.375000X0*%
%ADD30RoundRect,0.150000X-0.150000X0.512500X-0.150000X-0.512500X0.150000X-0.512500X0.150000X0.512500X0*%
%ADD31R,1.200000X1.200000*%
%ADD32RoundRect,0.200000X0.200000X0.275000X-0.200000X0.275000X-0.200000X-0.275000X0.200000X-0.275000X0*%
G04 APERTURE END LIST*
D10*
%TO.C,R8*%
X125590000Y-110275000D03*
X125590000Y-111925000D03*
%TD*%
%TO.C,R16*%
X143670000Y-110275000D03*
X143670000Y-111925000D03*
%TD*%
D11*
%TO.C,R12*%
X129400000Y-100725000D03*
X129400000Y-99075000D03*
%TD*%
%TO.C,R7*%
X159420000Y-124950000D03*
X159420000Y-123300000D03*
%TD*%
D12*
%TO.C,C13*%
X175387000Y-108524000D03*
X175387000Y-110424000D03*
%TD*%
D13*
%TO.C,U6*%
X125590000Y-107935000D03*
X126860000Y-107935000D03*
X128130000Y-107935000D03*
X129400000Y-107935000D03*
X130670000Y-107935000D03*
X131940000Y-107935000D03*
X133210000Y-107935000D03*
X133210000Y-102985000D03*
X131940000Y-102985000D03*
X130670000Y-102985000D03*
X129400000Y-102985000D03*
X128130000Y-102985000D03*
X126860000Y-102985000D03*
X125590000Y-102985000D03*
%TD*%
D14*
%TO.C,C6*%
X136975000Y-121500000D03*
X135425000Y-121500000D03*
%TD*%
D15*
%TO.C,C21*%
X168021000Y-91501000D03*
X168021000Y-89601000D03*
%TD*%
D16*
%TO.C,C7*%
X150050000Y-117150000D03*
X150050000Y-115600000D03*
%TD*%
%TO.C,C10*%
X136900000Y-117235000D03*
X136900000Y-115685000D03*
%TD*%
D13*
%TO.C,U5*%
X138590000Y-107935000D03*
X139860000Y-107935000D03*
X141130000Y-107935000D03*
X142400000Y-107935000D03*
X143670000Y-107935000D03*
X144940000Y-107935000D03*
X146210000Y-107935000D03*
X146210000Y-102985000D03*
X144940000Y-102985000D03*
X143670000Y-102985000D03*
X142400000Y-102985000D03*
X141130000Y-102985000D03*
X139860000Y-102985000D03*
X138590000Y-102985000D03*
%TD*%
D17*
%TO.C,J1*%
X171644305Y-122919305D03*
X172444305Y-122919305D03*
D18*
X173644305Y-122919305D03*
X174644305Y-122919305D03*
X175144305Y-122919305D03*
X176144305Y-122919305D03*
D17*
X177344305Y-122919305D03*
X178144305Y-122919305D03*
X178144305Y-122919305D03*
X177344305Y-122919305D03*
D18*
X176644305Y-122919305D03*
X175644305Y-122919305D03*
X174144305Y-122919305D03*
X173144305Y-122919305D03*
D17*
X172444305Y-122919305D03*
X171644305Y-122919305D03*
%TD*%
D10*
%TO.C,R14*%
X138590000Y-110275000D03*
X138590000Y-111925000D03*
%TD*%
D19*
%TO.C,D2*%
X153384000Y-126350000D03*
X154959000Y-126350000D03*
%TD*%
D20*
%TO.C,U1*%
X139231805Y-117214305D03*
X139231805Y-117714305D03*
X139231805Y-118214305D03*
X139231805Y-118714305D03*
X139231805Y-119214305D03*
X139231805Y-119714305D03*
X139231805Y-120214305D03*
X139231805Y-120714305D03*
X139231805Y-121214305D03*
X139231805Y-121714305D03*
X139231805Y-122214305D03*
X139231805Y-122714305D03*
D21*
X140644305Y-124126805D03*
X141144305Y-124126805D03*
X141644305Y-124126805D03*
X142144305Y-124126805D03*
X142644305Y-124126805D03*
X143144305Y-124126805D03*
X143644305Y-124126805D03*
X144144305Y-124126805D03*
X144644305Y-124126805D03*
X145144305Y-124126805D03*
X145644305Y-124126805D03*
X146144305Y-124126805D03*
D20*
X147556805Y-122714305D03*
X147556805Y-122214305D03*
X147556805Y-121714305D03*
X147556805Y-121214305D03*
X147556805Y-120714305D03*
X147556805Y-120214305D03*
X147556805Y-119714305D03*
X147556805Y-119214305D03*
X147556805Y-118714305D03*
X147556805Y-118214305D03*
X147556805Y-117714305D03*
X147556805Y-117214305D03*
D21*
X146144305Y-115801805D03*
X145644305Y-115801805D03*
X145144305Y-115801805D03*
X144644305Y-115801805D03*
X144144305Y-115801805D03*
X143644305Y-115801805D03*
X143144305Y-115801805D03*
X142644305Y-115801805D03*
X142144305Y-115801805D03*
X141644305Y-115801805D03*
X141144305Y-115801805D03*
X140644305Y-115801805D03*
%TD*%
D22*
%TO.C,R27*%
X135375000Y-123300000D03*
X137025000Y-123300000D03*
%TD*%
D10*
%TO.C,R9*%
X128130000Y-110275000D03*
X128130000Y-111925000D03*
%TD*%
%TO.C,R4*%
X173944305Y-112675000D03*
X173944305Y-114325000D03*
%TD*%
D23*
%TO.C,C18*%
X123500000Y-102475000D03*
X123500000Y-104025000D03*
%TD*%
D11*
%TO.C,R21*%
X149490000Y-97325000D03*
X149490000Y-95675000D03*
%TD*%
D24*
%TO.C,FB1*%
X179980000Y-110387500D03*
X179980000Y-108812500D03*
%TD*%
D11*
%TO.C,R2*%
X172198743Y-120120034D03*
X172198743Y-118470034D03*
%TD*%
%TO.C,R24*%
X163460000Y-97325000D03*
X163460000Y-95675000D03*
%TD*%
D25*
%TO.C,C2*%
X181625000Y-125500000D03*
X183175000Y-125500000D03*
%TD*%
D11*
%TO.C,R20*%
X124320000Y-100725000D03*
X124320000Y-99075000D03*
%TD*%
D22*
%TO.C,R28*%
X153975000Y-100200000D03*
X155625000Y-100200000D03*
%TD*%
D26*
%TO.C,U3*%
X173150000Y-105300000D03*
X173150000Y-103000000D03*
D27*
X166850000Y-103000000D03*
D26*
X173150000Y-100700000D03*
%TD*%
D19*
%TO.C,D3*%
X153384000Y-123350000D03*
X154959000Y-123350000D03*
%TD*%
D28*
%TO.C,Y1*%
X131894305Y-117614305D03*
X131894305Y-121314305D03*
%TD*%
D11*
%TO.C,R11*%
X131940000Y-100725000D03*
X131940000Y-99075000D03*
%TD*%
D29*
%TO.C,F1*%
X179984999Y-118402459D03*
X179984999Y-115602459D03*
%TD*%
D11*
%TO.C,R26*%
X158380000Y-97325000D03*
X158380000Y-95675000D03*
%TD*%
%TO.C,R19*%
X139860000Y-100725000D03*
X139860000Y-99075000D03*
%TD*%
D30*
%TO.C,U2*%
X175844305Y-116326805D03*
X174894305Y-116326805D03*
X173944305Y-116326805D03*
X173944305Y-118601805D03*
X174894305Y-118601805D03*
X175844305Y-118601805D03*
%TD*%
D23*
%TO.C,C3*%
X128488600Y-116203979D03*
X128488600Y-117753979D03*
%TD*%
D15*
%TO.C,C20*%
X181610000Y-91501000D03*
X181610000Y-89601000D03*
%TD*%
D23*
%TO.C,C19*%
X136500000Y-102475000D03*
X136500000Y-104025000D03*
%TD*%
D10*
%TO.C,R15*%
X141130000Y-110275000D03*
X141130000Y-111925000D03*
%TD*%
D31*
%TO.C,D1*%
X179990000Y-113000000D03*
X182790000Y-113000000D03*
%TD*%
D10*
%TO.C,R5*%
X175844305Y-112675000D03*
X175844305Y-114325000D03*
%TD*%
D14*
%TO.C,C9*%
X139570704Y-113800000D03*
X138020704Y-113800000D03*
%TD*%
D32*
%TO.C,R1*%
X183225000Y-123800000D03*
X181575000Y-123800000D03*
%TD*%
D11*
%TO.C,R25*%
X160920000Y-97325000D03*
X160920000Y-95675000D03*
%TD*%
D10*
%TO.C,R6*%
X157580000Y-124920000D03*
X157580000Y-126570000D03*
%TD*%
D14*
%TO.C,C8*%
X146145000Y-126900000D03*
X144595000Y-126900000D03*
%TD*%
D25*
%TO.C,C1*%
X135425000Y-125100000D03*
X136975000Y-125100000D03*
%TD*%
D11*
%TO.C,R13*%
X126860000Y-100725000D03*
X126860000Y-99075000D03*
%TD*%
D23*
%TO.C,C15*%
X177750000Y-108825000D03*
X177750000Y-110375000D03*
%TD*%
D16*
%TO.C,C11*%
X182600000Y-110375000D03*
X182600000Y-108825000D03*
%TD*%
D12*
%TO.C,C16*%
X176149000Y-103698000D03*
X176149000Y-105598000D03*
%TD*%
D16*
%TO.C,C12*%
X176200000Y-100675000D03*
X176200000Y-99125000D03*
%TD*%
%TO.C,C5*%
X128488600Y-122758671D03*
X128488600Y-121208671D03*
%TD*%
D11*
%TO.C,R22*%
X152030000Y-97325000D03*
X152030000Y-95675000D03*
%TD*%
%TO.C,R3*%
X177550000Y-120125000D03*
X177550000Y-118475000D03*
%TD*%
%TO.C,R17*%
X144940000Y-100725000D03*
X144940000Y-99075000D03*
%TD*%
D16*
%TO.C,C4*%
X182100000Y-118425000D03*
X182100000Y-116875000D03*
%TD*%
D11*
%TO.C,R18*%
X142400000Y-100725000D03*
X142400000Y-99075000D03*
%TD*%
D10*
%TO.C,R10*%
X130670000Y-110275000D03*
X130670000Y-111925000D03*
%TD*%
D11*
%TO.C,R23*%
X154570000Y-97325000D03*
X154570000Y-95675000D03*
%TD*%
M02*
