%TF.GenerationSoftware,KiCad,Pcbnew,10.0.1*%
%TF.CreationDate,2026-06-26T16:38:34+09:00*%
%TF.ProjectId,gw-v41-plus,67772d76-3431-42d7-906c-75732e6b6963,rev?*%
%TF.SameCoordinates,Original*%
%TF.FileFunction,Legend,Bot*%
%TF.FilePolarity,Positive*%
%FSLAX46Y46*%
G04 Gerber Fmt 4.6, Leading zero omitted, Abs format (unit mm)*
G04 Created by KiCad (PCBNEW 10.0.1) date 2026-06-26 16:38:34*
%MOMM*%
%LPD*%
G01*
G04 APERTURE LIST*
%ADD10C,0.150000*%
%ADD11C,0.000000*%
G04 APERTURE END LIST*
D10*
G36*
X112333782Y-114224136D02*
G01*
X112405810Y-114219296D01*
X112480902Y-114204397D01*
X112559755Y-114178634D01*
X112617561Y-114150435D01*
X112652389Y-114122452D01*
X112670755Y-114094600D01*
X112676552Y-114065647D01*
X112671355Y-114033175D01*
X112652719Y-113988495D01*
X112614710Y-113927308D01*
X112586758Y-113902068D01*
X112549497Y-113893602D01*
X112506113Y-113901887D01*
X112433213Y-113934635D01*
X112359293Y-113966870D01*
X112308649Y-113975595D01*
X112267822Y-113971256D01*
X112250140Y-113961733D01*
X112245122Y-113948777D01*
X112250576Y-113932908D01*
X112269375Y-113919321D01*
X112352247Y-113895874D01*
X112442592Y-113873233D01*
X112508373Y-113846502D01*
X112559197Y-113812980D01*
X112597605Y-113772895D01*
X112625168Y-113725603D01*
X112642343Y-113669652D01*
X112648415Y-113602929D01*
X112642363Y-113539802D01*
X112625254Y-113487209D01*
X112597731Y-113443017D01*
X112559169Y-113405825D01*
X112513572Y-113378131D01*
X112456232Y-113356859D01*
X112384622Y-113342912D01*
X112295753Y-113337828D01*
X112219619Y-113343790D01*
X112142088Y-113362006D01*
X112062306Y-113393369D01*
X112023081Y-113417928D01*
X112002509Y-113445405D01*
X111996173Y-113477236D01*
X112004719Y-113516819D01*
X112033729Y-113568491D01*
X112064056Y-113607111D01*
X112091557Y-113626591D01*
X112117700Y-113632458D01*
X112147306Y-113626854D01*
X112210097Y-113602416D01*
X112274415Y-113578523D01*
X112314291Y-113572301D01*
X112353019Y-113577285D01*
X112370911Y-113588769D01*
X112376427Y-113605713D01*
X112373935Y-113620881D01*
X112366315Y-113632678D01*
X112355324Y-113641910D01*
X112339277Y-113649457D01*
X112320666Y-113655319D01*
X112298757Y-113661254D01*
X112275090Y-113666237D01*
X112248053Y-113670487D01*
X112221015Y-113674663D01*
X112128838Y-113696498D01*
X112090851Y-113711421D01*
X112047798Y-113735187D01*
X112010140Y-113767546D01*
X111981926Y-113812489D01*
X111965143Y-113866015D01*
X111959064Y-113933463D01*
X111966808Y-114011028D01*
X111988407Y-114073381D01*
X112022846Y-114123832D01*
X112071087Y-114164425D01*
X112135926Y-114195662D01*
X112221668Y-114216427D01*
X112333782Y-114224136D01*
G37*
G36*
X111647288Y-114203107D02*
G01*
X111683598Y-114211515D01*
X111734849Y-114214757D01*
X111785928Y-114211458D01*
X111821531Y-114202960D01*
X111850039Y-114187239D01*
X111867840Y-114165225D01*
X111883886Y-114119869D01*
X111886378Y-114061837D01*
X111886378Y-113127974D01*
X111883886Y-113071701D01*
X111867840Y-113026272D01*
X111850032Y-113004198D01*
X111821531Y-112988463D01*
X111785736Y-112980044D01*
X111733164Y-112976739D01*
X111682025Y-112980059D01*
X111646409Y-112988609D01*
X111617919Y-113004429D01*
X111600101Y-113026638D01*
X111584127Y-113072287D01*
X111581563Y-113130612D01*
X111581563Y-113438358D01*
X111527737Y-113397285D01*
X111472166Y-113373755D01*
X111413255Y-113365965D01*
X111335121Y-113373730D01*
X111264998Y-113396399D01*
X111201115Y-113434068D01*
X111142292Y-113488184D01*
X111094776Y-113552274D01*
X111060862Y-113622929D01*
X111040080Y-113701432D01*
X111032896Y-113789482D01*
X111032896Y-114064035D01*
X111035387Y-114120235D01*
X111051434Y-114165445D01*
X111069436Y-114187322D01*
X111098768Y-114203034D01*
X111135226Y-114211496D01*
X111186622Y-114214757D01*
X111237921Y-114211498D01*
X111273670Y-114203107D01*
X111302340Y-114187621D01*
X111320125Y-114166397D01*
X111336978Y-114120528D01*
X111340348Y-114061251D01*
X111340348Y-113789189D01*
X111348259Y-113740030D01*
X111370537Y-113703313D01*
X111392514Y-113685546D01*
X111419385Y-113674644D01*
X111452602Y-113670780D01*
X111495847Y-113677768D01*
X111536353Y-113699136D01*
X111567610Y-113730631D01*
X111581563Y-113764203D01*
X111581563Y-114064548D01*
X111584127Y-114121334D01*
X111600101Y-114165591D01*
X111618027Y-114187411D01*
X111647288Y-114203107D01*
G37*
G36*
X110324366Y-113362646D02*
G01*
X110365923Y-113377802D01*
X110390448Y-113399428D01*
X110402456Y-113427953D01*
X110450754Y-113391461D01*
X110508450Y-113369136D01*
X110578237Y-113361275D01*
X110649367Y-113368991D01*
X110716824Y-113392107D01*
X110782056Y-113431655D01*
X110846050Y-113490016D01*
X110899093Y-113558086D01*
X110935777Y-113628543D01*
X110957562Y-113702356D01*
X110964898Y-113780836D01*
X110957522Y-113862022D01*
X110935735Y-113937543D01*
X110899287Y-114008770D01*
X110846929Y-114076711D01*
X110783363Y-114134905D01*
X110718137Y-114174442D01*
X110650253Y-114197621D01*
X110578237Y-114205378D01*
X110511243Y-114198356D01*
X110453297Y-114178118D01*
X110402456Y-114144782D01*
X110387156Y-114168844D01*
X110361119Y-114187432D01*
X110320530Y-114200330D01*
X110259647Y-114205378D01*
X110208538Y-114202117D01*
X110172306Y-114193655D01*
X110143133Y-114177876D01*
X110125265Y-114155919D01*
X110109291Y-114111443D01*
X110106727Y-114054436D01*
X110106727Y-113780982D01*
X110420921Y-113780982D01*
X110429383Y-113825888D01*
X110454993Y-113864879D01*
X110492485Y-113891778D01*
X110535593Y-113900563D01*
X110582038Y-113891729D01*
X110622714Y-113864879D01*
X110643877Y-113839204D01*
X110656031Y-113812068D01*
X110660083Y-113782594D01*
X110651302Y-113737736D01*
X110624399Y-113697964D01*
X110598719Y-113677478D01*
X110570539Y-113665473D01*
X110538890Y-113661401D01*
X110507137Y-113665351D01*
X110479515Y-113676868D01*
X110454993Y-113696279D01*
X110429486Y-113734775D01*
X110420921Y-113780982D01*
X110106727Y-113780982D01*
X110106727Y-113509213D01*
X110109291Y-113453086D01*
X110125265Y-113406924D01*
X110143075Y-113384192D01*
X110171427Y-113368309D01*
X110206953Y-113359865D01*
X110257962Y-113356586D01*
X110324366Y-113362646D01*
G37*
G36*
X109568757Y-114219447D02*
G01*
X109640747Y-114212487D01*
X109716036Y-114190870D01*
X109788613Y-114156714D01*
X109858551Y-114110197D01*
X109900069Y-114072403D01*
X109936651Y-114026524D01*
X109968387Y-113971565D01*
X109991625Y-113912592D01*
X110005762Y-113849280D01*
X110010593Y-113780762D01*
X110005792Y-113713419D01*
X109991716Y-113650977D01*
X109968534Y-113592598D01*
X109937003Y-113538129D01*
X109900856Y-113492820D01*
X109860017Y-113455651D01*
X109791068Y-113409811D01*
X109718747Y-113375783D01*
X109643798Y-113354128D01*
X109573300Y-113347207D01*
X109492153Y-113354662D01*
X109415176Y-113376864D01*
X109341099Y-113414325D01*
X109296549Y-113443634D01*
X109264602Y-113479684D01*
X109252512Y-113504165D01*
X109248555Y-113530023D01*
X109256263Y-113571002D01*
X109283799Y-113625644D01*
X109328920Y-113681694D01*
X109368416Y-113709616D01*
X109404626Y-113717894D01*
X109441595Y-113711051D01*
X109487644Y-113687339D01*
X109533850Y-113663666D01*
X109572348Y-113656711D01*
X109604375Y-113660774D01*
X109633127Y-113672777D01*
X109659542Y-113693274D01*
X109680069Y-113719488D01*
X109692234Y-113748857D01*
X109696399Y-113782448D01*
X109692324Y-113816118D01*
X109680397Y-113845824D01*
X109660275Y-113872573D01*
X109634331Y-113893617D01*
X109606358Y-113905832D01*
X109575425Y-113909942D01*
X109544223Y-113905098D01*
X109501566Y-113887814D01*
X109444005Y-113857553D01*
X109414152Y-113850445D01*
X109381470Y-113857907D01*
X109340690Y-113884388D01*
X109288196Y-113939325D01*
X109257843Y-113988256D01*
X109248929Y-114030891D01*
X109257575Y-114070809D01*
X109285631Y-114111230D01*
X109340219Y-114154087D01*
X109418404Y-114191152D01*
X109494202Y-114212488D01*
X109568757Y-114219447D01*
G37*
G36*
X108932090Y-114203107D02*
G01*
X108968399Y-114211515D01*
X109019651Y-114214757D01*
X109070729Y-114211458D01*
X109106332Y-114202960D01*
X109134840Y-114187239D01*
X109152641Y-114165225D01*
X109168688Y-114119869D01*
X109171179Y-114061837D01*
X109171179Y-113127974D01*
X109168688Y-113071701D01*
X109152641Y-113026272D01*
X109134833Y-113004198D01*
X109106332Y-112988463D01*
X109070537Y-112980044D01*
X109017965Y-112976739D01*
X108966826Y-112980059D01*
X108931210Y-112988609D01*
X108902721Y-113004429D01*
X108884902Y-113026638D01*
X108868928Y-113072287D01*
X108866364Y-113130612D01*
X108866364Y-113438358D01*
X108812538Y-113397285D01*
X108756967Y-113373755D01*
X108698056Y-113365965D01*
X108619922Y-113373730D01*
X108549799Y-113396399D01*
X108485916Y-113434068D01*
X108427093Y-113488184D01*
X108379578Y-113552274D01*
X108345663Y-113622929D01*
X108324881Y-113701432D01*
X108317697Y-113789482D01*
X108317697Y-114064035D01*
X108320188Y-114120235D01*
X108336235Y-114165445D01*
X108354237Y-114187322D01*
X108383569Y-114203034D01*
X108420028Y-114211496D01*
X108471423Y-114214757D01*
X108522722Y-114211498D01*
X108558471Y-114203107D01*
X108587141Y-114187621D01*
X108604926Y-114166397D01*
X108621779Y-114120528D01*
X108625150Y-114061251D01*
X108625150Y-113789189D01*
X108633060Y-113740030D01*
X108655338Y-113703313D01*
X108677315Y-113685546D01*
X108704186Y-113674644D01*
X108737404Y-113670780D01*
X108780648Y-113677768D01*
X108821154Y-113699136D01*
X108852411Y-113730631D01*
X108866364Y-113764203D01*
X108866364Y-114064548D01*
X108868928Y-114121334D01*
X108884902Y-114165591D01*
X108902828Y-114187411D01*
X108932090Y-114203107D01*
G37*
G36*
X108060582Y-113281554D02*
G01*
X108111729Y-113278274D01*
X108147337Y-113269831D01*
X108175762Y-113253875D01*
X108193646Y-113231069D01*
X108209692Y-113184688D01*
X108212184Y-113128341D01*
X108209692Y-113071921D01*
X108193646Y-113026418D01*
X108175706Y-113004339D01*
X108146531Y-112988536D01*
X108110150Y-112980020D01*
X108058897Y-112976739D01*
X108007754Y-112980039D01*
X107972142Y-112988536D01*
X107943726Y-113004448D01*
X107925833Y-113027297D01*
X107909860Y-113073606D01*
X107907369Y-113129953D01*
X107909860Y-113187252D01*
X107925833Y-113231949D01*
X107943639Y-113254039D01*
X107972142Y-113269831D01*
X108007946Y-113278249D01*
X108060582Y-113281554D01*
G37*
G36*
X108060582Y-114214757D02*
G01*
X108111729Y-114211477D01*
X108147337Y-114203034D01*
X108175849Y-114187384D01*
X108193646Y-114165445D01*
X108209692Y-114120235D01*
X108212184Y-114062350D01*
X108212184Y-113516687D01*
X108209692Y-113460560D01*
X108193646Y-113415351D01*
X108175726Y-113393450D01*
X108146531Y-113377688D01*
X108110154Y-113369225D01*
X108058897Y-113365965D01*
X108007750Y-113369245D01*
X107972142Y-113377688D01*
X107943706Y-113393559D01*
X107925833Y-113416230D01*
X107909860Y-113462245D01*
X107907369Y-113520057D01*
X107907369Y-114064035D01*
X107909860Y-114121041D01*
X107925833Y-114165445D01*
X107943630Y-114187384D01*
X107972142Y-114203034D01*
X108007946Y-114211452D01*
X108060582Y-114214757D01*
G37*
G36*
X107308803Y-113661401D02*
G01*
X107707993Y-113661401D01*
X107754832Y-113656864D01*
X107786691Y-113645080D01*
X107807733Y-113627544D01*
X107820394Y-113603882D01*
X107826483Y-113571253D01*
X107828820Y-113526066D01*
X107826007Y-113481106D01*
X107818782Y-113449935D01*
X107805324Y-113424842D01*
X107786908Y-113409342D01*
X107753712Y-113398319D01*
X107706308Y-113394101D01*
X107307117Y-113394101D01*
X107248109Y-113401753D01*
X107213997Y-113420866D01*
X107196402Y-113449935D01*
X107189141Y-113482582D01*
X107186364Y-113527751D01*
X107188939Y-113572860D01*
X107195596Y-113604761D01*
X107208092Y-113630680D01*
X107224905Y-113646160D01*
X107258479Y-113657113D01*
X107308803Y-113661401D01*
G37*
G36*
X106759183Y-114210068D02*
G01*
X106859048Y-114206930D01*
X106923681Y-114199150D01*
X106979280Y-114181857D01*
X107027728Y-114152182D01*
X107054085Y-114125438D01*
X107074831Y-114091259D01*
X107089863Y-114048135D01*
X107101896Y-113974377D01*
X107106643Y-113866052D01*
X107106643Y-113122479D01*
X107104152Y-113064520D01*
X107088105Y-113019237D01*
X107070178Y-112997278D01*
X107040990Y-112981502D01*
X107004609Y-112972985D01*
X106953356Y-112969705D01*
X106902213Y-112973005D01*
X106866601Y-112981502D01*
X106838353Y-112997408D01*
X106821172Y-113020043D01*
X106805198Y-113066938D01*
X106801828Y-113123871D01*
X106801828Y-113845975D01*
X106799754Y-113891195D01*
X106795966Y-113905399D01*
X106786093Y-113911557D01*
X106756765Y-113914632D01*
X106721814Y-113917196D01*
X106689281Y-113931558D01*
X106673338Y-113947301D01*
X106660924Y-113975448D01*
X106654316Y-114009843D01*
X106651765Y-114058100D01*
X106654346Y-114109607D01*
X106660997Y-114145954D01*
X106673547Y-114175656D01*
X106689574Y-114192336D01*
X106722254Y-114207503D01*
X106759183Y-114210068D01*
G37*
G36*
X105981923Y-113362646D02*
G01*
X106023480Y-113377802D01*
X106048006Y-113399428D01*
X106060013Y-113427953D01*
X106108312Y-113391461D01*
X106166007Y-113369136D01*
X106235795Y-113361275D01*
X106306925Y-113368991D01*
X106374381Y-113392107D01*
X106439613Y-113431655D01*
X106503607Y-113490016D01*
X106556650Y-113558086D01*
X106593334Y-113628543D01*
X106615120Y-113702356D01*
X106622456Y-113780836D01*
X106615079Y-113862022D01*
X106593293Y-113937543D01*
X106556845Y-114008770D01*
X106504487Y-114076711D01*
X106440921Y-114134905D01*
X106375694Y-114174442D01*
X106307810Y-114197621D01*
X106235795Y-114205378D01*
X106168800Y-114198356D01*
X106110855Y-114178118D01*
X106060013Y-114144782D01*
X106044714Y-114168844D01*
X106018676Y-114187432D01*
X105978088Y-114200330D01*
X105917205Y-114205378D01*
X105866096Y-114202117D01*
X105829863Y-114193655D01*
X105800691Y-114177876D01*
X105782822Y-114155919D01*
X105766849Y-114111443D01*
X105764284Y-114054436D01*
X105764284Y-113780982D01*
X106078478Y-113780982D01*
X106086940Y-113825888D01*
X106112550Y-113864879D01*
X106150043Y-113891778D01*
X106193150Y-113900563D01*
X106239595Y-113891729D01*
X106280272Y-113864879D01*
X106301435Y-113839204D01*
X106313589Y-113812068D01*
X106317641Y-113782594D01*
X106308859Y-113737736D01*
X106281957Y-113697964D01*
X106256277Y-113677478D01*
X106228096Y-113665473D01*
X106196448Y-113661401D01*
X106164694Y-113665351D01*
X106137073Y-113676868D01*
X106112550Y-113696279D01*
X106087044Y-113734775D01*
X106078478Y-113780982D01*
X105764284Y-113780982D01*
X105764284Y-113509213D01*
X105766849Y-113453086D01*
X105782822Y-113406924D01*
X105800632Y-113384192D01*
X105828984Y-113368309D01*
X105864511Y-113359865D01*
X105915519Y-113356586D01*
X105981923Y-113362646D01*
G37*
G36*
X105559560Y-112980042D02*
G01*
X105594877Y-112988463D01*
X105622968Y-113004163D01*
X105640526Y-113026198D01*
X105656280Y-113071408D01*
X105658771Y-113127608D01*
X105658771Y-114057587D01*
X105656280Y-114113714D01*
X105640453Y-114159803D01*
X105622731Y-114182483D01*
X105594511Y-114198344D01*
X105559163Y-114206792D01*
X105508562Y-114210068D01*
X105453386Y-114204993D01*
X105414843Y-114191701D01*
X105388533Y-114171878D01*
X105371688Y-114145368D01*
X105319410Y-114178406D01*
X105260353Y-114198444D01*
X105192683Y-114205378D01*
X105119977Y-114197607D01*
X105051486Y-114174400D01*
X104985733Y-114134851D01*
X104921720Y-114076711D01*
X104868832Y-114008705D01*
X104832053Y-113937462D01*
X104810086Y-113861966D01*
X104803094Y-113785672D01*
X105110104Y-113785672D01*
X105114184Y-113816220D01*
X105126321Y-113843879D01*
X105147254Y-113869569D01*
X105187635Y-113896449D01*
X105233349Y-113905253D01*
X105278712Y-113896398D01*
X105317686Y-113869569D01*
X105344387Y-113830472D01*
X105353150Y-113785672D01*
X105349161Y-113753931D01*
X105337476Y-113726029D01*
X105317686Y-113700968D01*
X105278539Y-113674846D01*
X105231664Y-113666090D01*
X105184726Y-113674850D01*
X105145568Y-113700968D01*
X105125778Y-113726029D01*
X105114093Y-113753931D01*
X105110104Y-113785672D01*
X104803094Y-113785672D01*
X104802651Y-113780836D01*
X104810045Y-113702411D01*
X104832009Y-113628625D01*
X104869023Y-113558151D01*
X104922599Y-113490016D01*
X104987077Y-113431708D01*
X105052860Y-113392149D01*
X105120937Y-113369004D01*
X105192756Y-113361275D01*
X105257261Y-113367709D01*
X105313551Y-113386280D01*
X105363335Y-113416816D01*
X105363335Y-113129000D01*
X105363335Y-113085476D01*
X105370809Y-113043711D01*
X105392424Y-113008613D01*
X105409175Y-112995796D01*
X105435582Y-112985166D01*
X105466437Y-112979049D01*
X105507756Y-112976739D01*
X105559560Y-112980042D01*
G37*
G36*
X104502745Y-114179367D02*
G01*
X104529384Y-114197482D01*
X104569537Y-114209931D01*
X104628262Y-114214757D01*
X104686986Y-114209933D01*
X104727169Y-114197485D01*
X104753852Y-114179367D01*
X104772442Y-114153168D01*
X104785139Y-114113804D01*
X104790048Y-114056341D01*
X104785067Y-113995344D01*
X104772300Y-113954231D01*
X104753852Y-113927454D01*
X104727056Y-113908905D01*
X104686387Y-113896142D01*
X104626577Y-113891184D01*
X104567944Y-113896134D01*
X104528104Y-113908883D01*
X104501866Y-113927454D01*
X104483808Y-113954124D01*
X104471332Y-113994753D01*
X104466475Y-114054656D01*
X104471425Y-114113288D01*
X104484174Y-114153129D01*
X104502745Y-114179367D01*
G37*
G36*
X103977745Y-114219447D02*
G01*
X104049735Y-114212487D01*
X104125024Y-114190870D01*
X104197601Y-114156714D01*
X104267540Y-114110197D01*
X104309057Y-114072403D01*
X104345639Y-114026524D01*
X104377376Y-113971565D01*
X104400613Y-113912592D01*
X104414751Y-113849280D01*
X104419581Y-113780762D01*
X104414780Y-113713419D01*
X104400704Y-113650977D01*
X104377522Y-113592598D01*
X104345991Y-113538129D01*
X104309844Y-113492820D01*
X104269005Y-113455651D01*
X104200057Y-113409811D01*
X104127735Y-113375783D01*
X104052786Y-113354128D01*
X103982288Y-113347207D01*
X103901141Y-113354662D01*
X103824165Y-113376864D01*
X103750087Y-113414325D01*
X103705537Y-113443634D01*
X103673590Y-113479684D01*
X103661500Y-113504165D01*
X103657543Y-113530023D01*
X103665252Y-113571002D01*
X103692787Y-113625644D01*
X103737908Y-113681694D01*
X103777404Y-113709616D01*
X103813614Y-113717894D01*
X103850583Y-113711051D01*
X103896632Y-113687339D01*
X103942838Y-113663666D01*
X103981336Y-113656711D01*
X104013363Y-113660774D01*
X104042115Y-113672777D01*
X104068531Y-113693274D01*
X104089058Y-113719488D01*
X104101222Y-113748857D01*
X104105387Y-113782448D01*
X104101312Y-113816118D01*
X104089385Y-113845824D01*
X104069263Y-113872573D01*
X104043320Y-113893617D01*
X104015346Y-113905832D01*
X103984413Y-113909942D01*
X103953211Y-113905098D01*
X103910554Y-113887814D01*
X103852993Y-113857553D01*
X103823140Y-113850445D01*
X103790458Y-113857907D01*
X103749678Y-113884388D01*
X103697184Y-113939325D01*
X103666831Y-113988256D01*
X103657917Y-114030891D01*
X103666563Y-114070809D01*
X103694619Y-114111230D01*
X103749207Y-114154087D01*
X103827392Y-114191152D01*
X103903191Y-114212488D01*
X103977745Y-114219447D01*
G37*
G36*
X103238507Y-113346136D02*
G01*
X103318930Y-113370516D01*
X103393408Y-113411118D01*
X103463150Y-113469353D01*
X103521131Y-113539235D01*
X103561606Y-113613986D01*
X103585937Y-113694824D01*
X103594235Y-113783473D01*
X103588447Y-113858545D01*
X103571612Y-113926591D01*
X103544041Y-113988827D01*
X103505399Y-114046204D01*
X103454724Y-114099353D01*
X103381065Y-114155286D01*
X103305939Y-114193790D01*
X103228366Y-114216525D01*
X103147051Y-114224136D01*
X103066533Y-114216674D01*
X102989631Y-114194382D01*
X102915087Y-114156638D01*
X102841943Y-114101844D01*
X102791980Y-114049872D01*
X102753630Y-113992772D01*
X102726065Y-113929825D01*
X102709106Y-113859952D01*
X102703237Y-113781788D01*
X102703392Y-113780103D01*
X103010690Y-113780103D01*
X103016237Y-113824687D01*
X103031535Y-113858373D01*
X103056193Y-113883857D01*
X103103327Y-113909219D01*
X103150422Y-113917270D01*
X103197264Y-113909171D01*
X103243039Y-113883857D01*
X103266736Y-113858560D01*
X103281454Y-113825388D01*
X103286782Y-113781788D01*
X103282267Y-113744401D01*
X103269181Y-113712209D01*
X103247288Y-113683969D01*
X103218944Y-113662043D01*
X103187577Y-113649104D01*
X103152107Y-113644695D01*
X103110920Y-113649086D01*
X103077247Y-113661465D01*
X103049452Y-113681478D01*
X103028248Y-113708210D01*
X103015273Y-113740537D01*
X103010690Y-113780103D01*
X102703392Y-113780103D01*
X102711586Y-113691289D01*
X102735928Y-113609781D01*
X102776176Y-113535408D01*
X102833517Y-113466861D01*
X102902623Y-113410111D01*
X102977522Y-113370233D01*
X103059515Y-113346102D01*
X103150422Y-113337828D01*
X103238507Y-113346136D01*
G37*
G36*
X102482027Y-114210068D02*
G01*
X102533318Y-114206769D01*
X102569075Y-114198271D01*
X102597660Y-114182548D01*
X102615530Y-114160535D01*
X102631577Y-114115180D01*
X102634068Y-114057147D01*
X102634068Y-113507748D01*
X102631577Y-113450668D01*
X102615530Y-113406118D01*
X102597523Y-113384165D01*
X102568196Y-113368383D01*
X102531482Y-113359890D01*
X102478656Y-113356586D01*
X102418970Y-113362946D01*
X102378614Y-113379531D01*
X102352125Y-113404581D01*
X102336727Y-113439237D01*
X102285522Y-113392124D01*
X102231483Y-113365431D01*
X102172669Y-113356586D01*
X102097530Y-113364599D01*
X102034416Y-113387440D01*
X101980737Y-113424733D01*
X101934972Y-113477999D01*
X101879139Y-113422133D01*
X101823452Y-113384982D01*
X101767021Y-113363631D01*
X101708485Y-113356586D01*
X101637001Y-113363946D01*
X101576388Y-113384971D01*
X101524360Y-113419281D01*
X101479508Y-113468107D01*
X101446072Y-113524927D01*
X101420613Y-113594727D01*
X101404078Y-113680106D01*
X101398101Y-113784133D01*
X101398101Y-114057441D01*
X101400666Y-114115326D01*
X101416713Y-114160609D01*
X101434662Y-114182559D01*
X101463974Y-114198344D01*
X101500627Y-114206781D01*
X101553513Y-114210068D01*
X101604808Y-114206789D01*
X101640561Y-114198344D01*
X101669074Y-114182471D01*
X101687016Y-114159803D01*
X101703063Y-114112835D01*
X101705554Y-114055829D01*
X101705554Y-113782448D01*
X101712008Y-113724211D01*
X101728080Y-113689373D01*
X101751648Y-113670145D01*
X101784762Y-113663452D01*
X101822519Y-113670711D01*
X101845066Y-113690270D01*
X101857135Y-113722587D01*
X101862358Y-113784133D01*
X101862358Y-114057441D01*
X101864923Y-114115326D01*
X101880969Y-114160609D01*
X101898919Y-114182559D01*
X101928230Y-114198344D01*
X101964884Y-114206781D01*
X102017770Y-114210068D01*
X102069065Y-114206789D01*
X102104818Y-114198344D01*
X102133331Y-114182471D01*
X102151273Y-114159803D01*
X102167320Y-114112835D01*
X102169811Y-114055829D01*
X102169811Y-113782448D01*
X102176268Y-113724220D01*
X102192351Y-113689381D01*
X102215941Y-113670148D01*
X102249092Y-113663452D01*
X102281350Y-113670072D01*
X102304424Y-113689180D01*
X102320244Y-113724000D01*
X102326615Y-113782448D01*
X102326615Y-114059126D01*
X102329180Y-114116205D01*
X102345226Y-114160609D01*
X102363175Y-114182559D01*
X102392487Y-114198344D01*
X102429141Y-114206781D01*
X102482027Y-114210068D01*
G37*
D11*
G36*
X103734945Y-111663467D02*
G01*
X103734945Y-111983467D01*
X103094945Y-111983467D01*
X103094945Y-111663467D01*
X103414945Y-111663467D01*
X103414945Y-111343467D01*
X103734945Y-111343467D01*
X103734945Y-111663467D01*
G37*
G36*
X107254945Y-110703467D02*
G01*
X107894945Y-110703467D01*
X107894945Y-110383467D01*
X108534945Y-110383467D01*
X108534945Y-110703467D01*
X108214945Y-110703467D01*
X108214945Y-111023467D01*
X108534945Y-111023467D01*
X108534945Y-111343467D01*
X108214945Y-111343467D01*
X108214945Y-111663467D01*
X108534945Y-111663467D01*
X108534945Y-111983467D01*
X107894945Y-111983467D01*
X107894945Y-111663467D01*
X107574945Y-111663467D01*
X107574945Y-111343467D01*
X107254945Y-111343467D01*
X107254945Y-111663467D01*
X106614945Y-111663467D01*
X106614945Y-111983467D01*
X105654945Y-111983467D01*
X105654945Y-111663467D01*
X105334945Y-111663467D01*
X105334945Y-111983467D01*
X104694945Y-111983467D01*
X104694945Y-111663467D01*
X105014945Y-111663467D01*
X105014945Y-111343467D01*
X106294945Y-111343467D01*
X106294945Y-111023467D01*
X106614945Y-111023467D01*
X106614945Y-111343467D01*
X106934945Y-111343467D01*
X106934945Y-111023467D01*
X106614945Y-111023467D01*
X106614945Y-110703467D01*
X106934945Y-110703467D01*
X106934945Y-110383467D01*
X107254945Y-110383467D01*
X107254945Y-110703467D01*
G37*
G36*
X107574945Y-111983467D02*
G01*
X107254945Y-111983467D01*
X107254945Y-111663467D01*
X107574945Y-111663467D01*
X107574945Y-111983467D01*
G37*
G36*
X110454945Y-111343467D02*
G01*
X109494945Y-111343467D01*
X109494945Y-110383467D01*
X110454945Y-110383467D01*
X110454945Y-111343467D01*
G37*
G36*
X111094945Y-111663467D02*
G01*
X111094945Y-111983467D01*
X108854945Y-111983467D01*
X108854945Y-111663467D01*
X108854945Y-110063467D01*
X109174945Y-110063467D01*
X109174945Y-111663467D01*
X110774945Y-111663467D01*
X110774945Y-110063467D01*
X109174945Y-110063467D01*
X108854945Y-110063467D01*
X108854945Y-109743467D01*
X111094945Y-109743467D01*
X111094945Y-110063467D01*
X111094945Y-111663467D01*
G37*
G36*
X105334945Y-110063467D02*
G01*
X105014945Y-110063467D01*
X105014945Y-109743467D01*
X105334945Y-109743467D01*
X105334945Y-110063467D01*
G37*
G36*
X107574945Y-108783467D02*
G01*
X107254945Y-108783467D01*
X107254945Y-109103467D01*
X106614945Y-109103467D01*
X106614945Y-109423467D01*
X106294945Y-109423467D01*
X106294945Y-110383467D01*
X105974945Y-110383467D01*
X105974945Y-110703467D01*
X104694945Y-110703467D01*
X104694945Y-111023467D01*
X105014945Y-111023467D01*
X105014945Y-111343467D01*
X104694945Y-111343467D01*
X104694945Y-111663467D01*
X104054945Y-111663467D01*
X104054945Y-111343467D01*
X104054945Y-111023467D01*
X104374945Y-111023467D01*
X104374945Y-110703467D01*
X104374945Y-110383467D01*
X104054945Y-110383467D01*
X104054945Y-110063467D01*
X104374945Y-110063467D01*
X104374945Y-109743467D01*
X103734945Y-109743467D01*
X103734945Y-110063467D01*
X103094945Y-110063467D01*
X103094945Y-109743467D01*
X103094945Y-109423467D01*
X104054945Y-109423467D01*
X104694945Y-109423467D01*
X104694945Y-109743467D01*
X104694945Y-110063467D01*
X104694945Y-110383467D01*
X105654945Y-110383467D01*
X105654945Y-109423467D01*
X104694945Y-109423467D01*
X104054945Y-109423467D01*
X104054945Y-109103467D01*
X104054945Y-108783467D01*
X104374945Y-108783467D01*
X104374945Y-109103467D01*
X104694945Y-109103467D01*
X104694945Y-108463467D01*
X105014945Y-108463467D01*
X105334945Y-108463467D01*
X105334945Y-109103467D01*
X105654945Y-109103467D01*
X105654945Y-108783467D01*
X106934945Y-108783467D01*
X106934945Y-108143467D01*
X106614945Y-108143467D01*
X106614945Y-107823467D01*
X106294945Y-107823467D01*
X106294945Y-108143467D01*
X105974945Y-108143467D01*
X105974945Y-108463467D01*
X105334945Y-108463467D01*
X105014945Y-108463467D01*
X105014945Y-108143467D01*
X105014945Y-107823467D01*
X105654945Y-107823467D01*
X105654945Y-107503467D01*
X105654945Y-107183467D01*
X105334945Y-107183467D01*
X105334945Y-107503467D01*
X105014945Y-107503467D01*
X105014945Y-107183467D01*
X105014945Y-106863467D01*
X105654945Y-106863467D01*
X105654945Y-106543467D01*
X105974945Y-106543467D01*
X105974945Y-106863467D01*
X105974945Y-107183467D01*
X105974945Y-107503467D01*
X106614945Y-107503467D01*
X106614945Y-107183467D01*
X106934945Y-107183467D01*
X106934945Y-106863467D01*
X106614945Y-106863467D01*
X106614945Y-106543467D01*
X105974945Y-106543467D01*
X105974945Y-106223467D01*
X106294945Y-106223467D01*
X106294945Y-105903467D01*
X106614945Y-105903467D01*
X106614945Y-106223467D01*
X106934945Y-106223467D01*
X106934945Y-106543467D01*
X107574945Y-106543467D01*
X107574945Y-105903467D01*
X107254945Y-105903467D01*
X107254945Y-106223467D01*
X106934945Y-106223467D01*
X106934945Y-105903467D01*
X106934945Y-105583467D01*
X107254945Y-105583467D01*
X107254945Y-105263467D01*
X107574945Y-105263467D01*
X107574945Y-105583467D01*
X107894945Y-105583467D01*
X107894945Y-105263467D01*
X107894945Y-104943467D01*
X107574945Y-104943467D01*
X107574945Y-104623467D01*
X107894945Y-104623467D01*
X107894945Y-104303467D01*
X108534945Y-104303467D01*
X108534945Y-104623467D01*
X108214945Y-104623467D01*
X108214945Y-104943467D01*
X108214945Y-105263467D01*
X108534945Y-105263467D01*
X108534945Y-105583467D01*
X108214945Y-105583467D01*
X108214945Y-105903467D01*
X107894945Y-105903467D01*
X107894945Y-106543467D01*
X107894945Y-106863467D01*
X107574945Y-106863467D01*
X107574945Y-107183467D01*
X107254945Y-107183467D01*
X107254945Y-107503467D01*
X106934945Y-107503467D01*
X106934945Y-107823467D01*
X107574945Y-107823467D01*
X107574945Y-108143467D01*
X107574945Y-108783467D01*
G37*
G36*
X103414945Y-111343467D02*
G01*
X103094945Y-111343467D01*
X103094945Y-111023467D01*
X103414945Y-111023467D01*
X103414945Y-111343467D01*
G37*
G36*
X104054945Y-111023467D02*
G01*
X103734945Y-111023467D01*
X103734945Y-110703467D01*
X104054945Y-110703467D01*
X104054945Y-111023467D01*
G37*
G36*
X103734945Y-110703467D02*
G01*
X103094945Y-110703467D01*
X103094945Y-110383467D01*
X103734945Y-110383467D01*
X103734945Y-110703467D01*
G37*
G36*
X107574945Y-110383467D02*
G01*
X107254945Y-110383467D01*
X107254945Y-110063467D01*
X107574945Y-110063467D01*
X107574945Y-110383467D01*
G37*
G36*
X106934945Y-110063467D02*
G01*
X106614945Y-110063467D01*
X106614945Y-109743467D01*
X106934945Y-109743467D01*
X106934945Y-110063467D01*
G37*
G36*
X107574945Y-109423467D02*
G01*
X108534945Y-109423467D01*
X108534945Y-109743467D01*
X107254945Y-109743467D01*
X107254945Y-109423467D01*
X107254945Y-109103467D01*
X107574945Y-109103467D01*
X107574945Y-109423467D01*
G37*
G36*
X109494945Y-109103467D02*
G01*
X109494945Y-109423467D01*
X108534945Y-109423467D01*
X108534945Y-109103467D01*
X109174945Y-109103467D01*
X109174945Y-108783467D01*
X109494945Y-108783467D01*
X109494945Y-109103467D01*
G37*
G36*
X110134945Y-109103467D02*
G01*
X110454945Y-109103467D01*
X110454945Y-109423467D01*
X109814945Y-109423467D01*
X109814945Y-109103467D01*
X109814945Y-108783467D01*
X110134945Y-108783467D01*
X110134945Y-109103467D01*
G37*
G36*
X111094945Y-109423467D02*
G01*
X110774945Y-109423467D01*
X110774945Y-109103467D01*
X111094945Y-109103467D01*
X111094945Y-109423467D01*
G37*
G36*
X103414945Y-107183467D02*
G01*
X104054945Y-107183467D01*
X104054945Y-107503467D01*
X103734945Y-107503467D01*
X103734945Y-107823467D01*
X103734945Y-108143467D01*
X103414945Y-108143467D01*
X103414945Y-108463467D01*
X104054945Y-108463467D01*
X104054945Y-108783467D01*
X103734945Y-108783467D01*
X103734945Y-109103467D01*
X103414945Y-109103467D01*
X103414945Y-108783467D01*
X103094945Y-108783467D01*
X103094945Y-108463467D01*
X103094945Y-108143467D01*
X103094945Y-107823467D01*
X103414945Y-107823467D01*
X103414945Y-107503467D01*
X103094945Y-107503467D01*
X103094945Y-107183467D01*
X103094945Y-106863467D01*
X103414945Y-106863467D01*
X103414945Y-107183467D01*
G37*
G36*
X108534945Y-108783467D02*
G01*
X108214945Y-108783467D01*
X108214945Y-109103467D01*
X107574945Y-109103467D01*
X107574945Y-108783467D01*
X107894945Y-108783467D01*
X107894945Y-108463467D01*
X108534945Y-108463467D01*
X108534945Y-108783467D01*
G37*
G36*
X110774945Y-109103467D02*
G01*
X110454945Y-109103467D01*
X110454945Y-108783467D01*
X110774945Y-108783467D01*
X110774945Y-109103467D01*
G37*
G36*
X109174945Y-108783467D02*
G01*
X108854945Y-108783467D01*
X108854945Y-108463467D01*
X109174945Y-108463467D01*
X109174945Y-108783467D01*
G37*
G36*
X110134945Y-108143467D02*
G01*
X110774945Y-108143467D01*
X110774945Y-108463467D01*
X110454945Y-108463467D01*
X110454945Y-108783467D01*
X110134945Y-108783467D01*
X110134945Y-108463467D01*
X109494945Y-108463467D01*
X109494945Y-108143467D01*
X109814945Y-108143467D01*
X109814945Y-107823467D01*
X110134945Y-107823467D01*
X110134945Y-108143467D01*
G37*
G36*
X111094945Y-108783467D02*
G01*
X110774945Y-108783467D01*
X110774945Y-108463467D01*
X111094945Y-108463467D01*
X111094945Y-108783467D01*
G37*
G36*
X104374945Y-108463467D02*
G01*
X104054945Y-108463467D01*
X104054945Y-107823467D01*
X104374945Y-107823467D01*
X104374945Y-108463467D01*
G37*
G36*
X109814945Y-106863467D02*
G01*
X110134945Y-106863467D01*
X110134945Y-107183467D01*
X111094945Y-107183467D01*
X111094945Y-107503467D01*
X110774945Y-107503467D01*
X110774945Y-107823467D01*
X110134945Y-107823467D01*
X110134945Y-107503467D01*
X109814945Y-107503467D01*
X109814945Y-107183467D01*
X109494945Y-107183467D01*
X109494945Y-107503467D01*
X108534945Y-107503467D01*
X108534945Y-107823467D01*
X109174945Y-107823467D01*
X109174945Y-108143467D01*
X108854945Y-108143467D01*
X108854945Y-108463467D01*
X108534945Y-108463467D01*
X108534945Y-108143467D01*
X107894945Y-108143467D01*
X107894945Y-107823467D01*
X108214945Y-107823467D01*
X108214945Y-107503467D01*
X107894945Y-107503467D01*
X107894945Y-107183467D01*
X108534945Y-107183467D01*
X108534945Y-106863467D01*
X108854945Y-106863467D01*
X108854945Y-107183467D01*
X109174945Y-107183467D01*
X109174945Y-106863467D01*
X109494945Y-106863467D01*
X109494945Y-106543467D01*
X109814945Y-106543467D01*
X109814945Y-106863467D01*
G37*
G36*
X111094945Y-108143467D02*
G01*
X110774945Y-108143467D01*
X110774945Y-107823467D01*
X111094945Y-107823467D01*
X111094945Y-108143467D01*
G37*
G36*
X104694945Y-107503467D02*
G01*
X105014945Y-107503467D01*
X105014945Y-107823467D01*
X104374945Y-107823467D01*
X104374945Y-107503467D01*
X104374945Y-107183467D01*
X104694945Y-107183467D01*
X104694945Y-107503467D01*
G37*
G36*
X103734945Y-106863467D02*
G01*
X103414945Y-106863467D01*
X103414945Y-106543467D01*
X103734945Y-106543467D01*
X103734945Y-106863467D01*
G37*
G36*
X104694945Y-106863467D02*
G01*
X104374945Y-106863467D01*
X104374945Y-106543467D01*
X104694945Y-106543467D01*
X104694945Y-106863467D01*
G37*
G36*
X109174945Y-106863467D02*
G01*
X108854945Y-106863467D01*
X108854945Y-106543467D01*
X109174945Y-106543467D01*
X109174945Y-106863467D01*
G37*
G36*
X110454945Y-106863467D02*
G01*
X110134945Y-106863467D01*
X110134945Y-106543467D01*
X110454945Y-106543467D01*
X110454945Y-106863467D01*
G37*
G36*
X111094945Y-106863467D02*
G01*
X110774945Y-106863467D01*
X110774945Y-106543467D01*
X111094945Y-106543467D01*
X111094945Y-106863467D01*
G37*
G36*
X104694945Y-105583467D02*
G01*
X103734945Y-105583467D01*
X103734945Y-104623467D01*
X104694945Y-104623467D01*
X104694945Y-105583467D01*
G37*
G36*
X105334945Y-105903467D02*
G01*
X105334945Y-106223467D01*
X103094945Y-106223467D01*
X103094945Y-105903467D01*
X103094945Y-104303467D01*
X103414945Y-104303467D01*
X103414945Y-105903467D01*
X105014945Y-105903467D01*
X105014945Y-104303467D01*
X103414945Y-104303467D01*
X103094945Y-104303467D01*
X103094945Y-103983467D01*
X105334945Y-103983467D01*
X105334945Y-104303467D01*
X105334945Y-105903467D01*
G37*
G36*
X107254945Y-104303467D02*
G01*
X106614945Y-104303467D01*
X106614945Y-104623467D01*
X106614945Y-104943467D01*
X106614945Y-105583467D01*
X106294945Y-105583467D01*
X106294945Y-105903467D01*
X105974945Y-105903467D01*
X105974945Y-106223467D01*
X105654945Y-106223467D01*
X105654945Y-105903467D01*
X105654945Y-105583467D01*
X105974945Y-105583467D01*
X105974945Y-104943467D01*
X105654945Y-104943467D01*
X105654945Y-104623467D01*
X105974945Y-104623467D01*
X105974945Y-104303467D01*
X105654945Y-104303467D01*
X105654945Y-103983467D01*
X107254945Y-103983467D01*
X107254945Y-104303467D01*
G37*
G36*
X108534945Y-106223467D02*
G01*
X108214945Y-106223467D01*
X108214945Y-105903467D01*
X108534945Y-105903467D01*
X108534945Y-106223467D01*
G37*
G36*
X110454945Y-105583467D02*
G01*
X109494945Y-105583467D01*
X109494945Y-104623467D01*
X110454945Y-104623467D01*
X110454945Y-105583467D01*
G37*
G36*
X111094945Y-105903467D02*
G01*
X111094945Y-106223467D01*
X108854945Y-106223467D01*
X108854945Y-105903467D01*
X108854945Y-104303467D01*
X109174945Y-104303467D01*
X109174945Y-105903467D01*
X110774945Y-105903467D01*
X110774945Y-104303467D01*
X109174945Y-104303467D01*
X108854945Y-104303467D01*
X108854945Y-103983467D01*
X111094945Y-103983467D01*
X111094945Y-104303467D01*
X111094945Y-105903467D01*
G37*
G36*
X107254945Y-105263467D02*
G01*
X106934945Y-105263467D01*
X106934945Y-104623467D01*
X107254945Y-104623467D01*
X107254945Y-105263467D01*
G37*
G36*
X107574945Y-104623467D02*
G01*
X107254945Y-104623467D01*
X107254945Y-104303467D01*
X107574945Y-104303467D01*
X107574945Y-104623467D01*
G37*
%TO.C,kibuzzard-6A2215D5*%
G36*
X114532956Y-127502908D02*
G01*
X114558804Y-127603069D01*
X114581422Y-127702423D01*
X114601615Y-127805816D01*
X114406139Y-127805816D01*
X114425525Y-127702423D01*
X114447334Y-127603069D01*
X114473183Y-127502908D01*
X114503069Y-127395477D01*
X114532956Y-127502908D01*
G37*
G36*
X115340711Y-127502908D02*
G01*
X115366559Y-127603069D01*
X115389176Y-127702423D01*
X115409370Y-127805816D01*
X115213893Y-127805816D01*
X115233279Y-127702423D01*
X115255089Y-127603069D01*
X115280937Y-127502908D01*
X115310824Y-127395477D01*
X115340711Y-127502908D01*
G37*
G36*
X116208239Y-127371244D02*
G01*
X116247819Y-127456866D01*
X116210662Y-127548950D01*
X116159370Y-127585299D01*
X116079806Y-127623263D01*
X116008724Y-127541680D01*
X115987722Y-127455250D01*
X116025687Y-127370436D01*
X116116963Y-127342165D01*
X116208239Y-127371244D01*
G37*
G36*
X116249435Y-127838934D02*
G01*
X116273667Y-127926979D01*
X116227625Y-128024717D01*
X116118578Y-128057835D01*
X116003069Y-128023102D01*
X115960258Y-127939903D01*
X115972375Y-127883360D01*
X116011147Y-127838934D01*
X116079806Y-127798546D01*
X116179968Y-127755735D01*
X116249435Y-127838934D01*
G37*
G36*
X121845557Y-127364782D02*
G01*
X121889176Y-127369628D01*
X121889176Y-127599031D01*
X121811632Y-127599031D01*
X121696930Y-127565913D01*
X121658158Y-127474637D01*
X121669467Y-127417286D01*
X121700162Y-127383360D01*
X121745396Y-127367205D01*
X121798708Y-127363166D01*
X121845557Y-127364782D01*
G37*
G36*
X121889176Y-128035218D02*
G01*
X121843134Y-128040065D01*
X121793861Y-128041680D01*
X121727625Y-128036026D01*
X121670275Y-128015024D01*
X121629079Y-127971405D01*
X121612924Y-127899515D01*
X121658966Y-127795315D01*
X121782552Y-127763813D01*
X121889176Y-127763813D01*
X121889176Y-128035218D01*
G37*
G36*
X119416640Y-127363974D02*
G01*
X119465913Y-127368013D01*
X119465913Y-127691115D01*
X119385137Y-127691115D01*
X119301535Y-127681624D01*
X119241357Y-127653150D01*
X119205008Y-127601656D01*
X119192892Y-127523102D01*
X119204806Y-127448586D01*
X119240549Y-127399515D01*
X119296082Y-127372254D01*
X119367367Y-127363166D01*
X119416640Y-127363974D01*
G37*
G36*
X118611712Y-127371042D02*
G01*
X118664620Y-127438288D01*
X118688853Y-127507126D01*
X118703393Y-127594094D01*
X118708239Y-127699192D01*
X118703393Y-127805188D01*
X118688853Y-127892694D01*
X118664620Y-127961712D01*
X118611712Y-128028958D01*
X118540226Y-128051373D01*
X118538611Y-128050874D01*
X118467730Y-128028958D01*
X118415024Y-127961712D01*
X118391240Y-127892694D01*
X118376970Y-127805188D01*
X118372213Y-127699192D01*
X118372944Y-127683037D01*
X118449758Y-127683037D01*
X118474798Y-127758158D01*
X118538611Y-127789661D01*
X118604846Y-127758158D01*
X118629079Y-127683037D01*
X118604846Y-127607108D01*
X118538611Y-127574798D01*
X118474798Y-127607108D01*
X118449758Y-127683037D01*
X118372944Y-127683037D01*
X118376970Y-127594094D01*
X118391240Y-127507126D01*
X118415024Y-127438288D01*
X118467730Y-127371042D01*
X118540226Y-127348627D01*
X118611712Y-127371042D01*
G37*
G36*
X122216240Y-127055386D02*
G01*
X122339534Y-127092787D01*
X122453163Y-127153523D01*
X122552759Y-127235259D01*
X122634496Y-127334855D01*
X122695231Y-127448484D01*
X122732632Y-127571778D01*
X122745261Y-127700000D01*
X122732632Y-127828222D01*
X122695231Y-127951516D01*
X122634496Y-128065145D01*
X122552759Y-128164741D01*
X122453163Y-128246477D01*
X122339534Y-128307213D01*
X122216240Y-128344614D01*
X122088018Y-128357243D01*
X122087884Y-128357243D01*
X121810016Y-128357243D01*
X120863328Y-128357243D01*
X120472375Y-128357243D01*
X119465913Y-128357243D01*
X118540226Y-128357243D01*
X117394830Y-128357243D01*
X116587076Y-128357243D01*
X116121809Y-128357243D01*
X115133118Y-128357243D01*
X114325363Y-128357243D01*
X114112116Y-128357243D01*
X114111982Y-128357243D01*
X113983760Y-128344614D01*
X113860466Y-128307213D01*
X113746837Y-128246477D01*
X113692173Y-128201616D01*
X114112116Y-128201616D01*
X114325363Y-128201616D01*
X114372213Y-127970598D01*
X114638772Y-127970598D01*
X114684006Y-128201616D01*
X114890792Y-128201616D01*
X114919871Y-128201616D01*
X115133118Y-128201616D01*
X115179968Y-127970598D01*
X115446527Y-127970598D01*
X115491761Y-128201616D01*
X115698546Y-128201616D01*
X115670048Y-128085460D01*
X115641422Y-127973506D01*
X115633317Y-127943134D01*
X115772859Y-127943134D01*
X115791438Y-128041680D01*
X115851212Y-128131341D01*
X115958643Y-128196769D01*
X116032552Y-128216155D01*
X116121809Y-128222617D01*
X116194305Y-128217973D01*
X116259935Y-128204039D01*
X116366559Y-128150727D01*
X116435218Y-128065105D01*
X116441233Y-128036834D01*
X116587076Y-128036834D01*
X116587076Y-128201616D01*
X117194507Y-128201616D01*
X117194507Y-128036834D01*
X117394830Y-128036834D01*
X117394830Y-128201616D01*
X118002262Y-128201616D01*
X118002262Y-128036834D01*
X117792246Y-128036834D01*
X117792246Y-127699192D01*
X118192892Y-127699192D01*
X118198445Y-127823183D01*
X118215105Y-127930210D01*
X118242872Y-128020275D01*
X118281745Y-128093376D01*
X118349955Y-128165177D01*
X118436116Y-128208257D01*
X118540226Y-128222617D01*
X118644337Y-128208257D01*
X118730497Y-128165177D01*
X118798708Y-128093376D01*
X118837581Y-128020275D01*
X118865347Y-127930210D01*
X118882007Y-127823183D01*
X118887561Y-127699192D01*
X118881906Y-127576616D01*
X118873602Y-127524717D01*
X118989338Y-127524717D01*
X119001095Y-127633226D01*
X119036367Y-127719655D01*
X119095153Y-127784006D01*
X119175480Y-127828433D01*
X119275372Y-127855089D01*
X119394830Y-127863974D01*
X119465913Y-127863974D01*
X119465913Y-128201616D01*
X119664620Y-128201616D01*
X119664620Y-127366397D01*
X119837480Y-127366397D01*
X120053958Y-127366397D01*
X120053958Y-128036834D01*
X119837480Y-128036834D01*
X119837480Y-128201616D01*
X120472375Y-128201616D01*
X120472375Y-128036834D01*
X120254281Y-128036834D01*
X120254281Y-127366397D01*
X120472375Y-127366397D01*
X120600000Y-127366397D01*
X120863328Y-127366397D01*
X120863328Y-128201616D01*
X121063651Y-128201616D01*
X121063651Y-127899515D01*
X121417447Y-127899515D01*
X121425121Y-127982512D01*
X121448142Y-128050565D01*
X121531341Y-128147496D01*
X121588691Y-128178595D01*
X121655735Y-128199192D01*
X121730250Y-128210703D01*
X121810016Y-128214540D01*
X121877464Y-128212722D01*
X121947334Y-128207270D01*
X122018013Y-128198183D01*
X122087884Y-128185460D01*
X122087884Y-127214540D01*
X121963489Y-127197577D01*
X121829402Y-127190307D01*
X121726817Y-127196163D01*
X121645234Y-127213732D01*
X121533764Y-127275121D01*
X121478837Y-127359935D01*
X121464297Y-127453635D01*
X121472981Y-127520679D01*
X121499031Y-127579645D01*
X121591922Y-127666882D01*
X121506502Y-127710501D01*
X121453796Y-127767044D01*
X121426535Y-127831664D01*
X121417447Y-127899515D01*
X121063651Y-127899515D01*
X121063651Y-127366397D01*
X121326979Y-127366397D01*
X121326979Y-127201616D01*
X120600000Y-127201616D01*
X120600000Y-127366397D01*
X120472375Y-127366397D01*
X120472375Y-127201616D01*
X119837480Y-127201616D01*
X119837480Y-127366397D01*
X119664620Y-127366397D01*
X119664620Y-127214540D01*
X119599192Y-127203231D01*
X119525687Y-127195961D01*
X119452989Y-127191922D01*
X119389984Y-127190307D01*
X119272411Y-127199013D01*
X119173865Y-127225130D01*
X119094346Y-127268659D01*
X119036008Y-127331933D01*
X119001005Y-127417286D01*
X118989338Y-127524717D01*
X118873602Y-127524717D01*
X118864943Y-127470598D01*
X118836672Y-127381139D01*
X118797092Y-127308239D01*
X118728343Y-127236439D01*
X118642721Y-127193358D01*
X118540226Y-127178998D01*
X118436116Y-127193269D01*
X118349955Y-127236080D01*
X118281745Y-127307431D01*
X118242872Y-127380079D01*
X118215105Y-127469588D01*
X118198445Y-127575959D01*
X118192892Y-127699192D01*
X117792246Y-127699192D01*
X117792246Y-127477868D01*
X117895638Y-127535218D01*
X117994184Y-127574798D01*
X118058804Y-127410016D01*
X117974798Y-127372859D01*
X117884330Y-127322779D01*
X117798708Y-127264620D01*
X117729241Y-127201616D01*
X117593538Y-127201616D01*
X117593538Y-128036834D01*
X117394830Y-128036834D01*
X117194507Y-128036834D01*
X116984491Y-128036834D01*
X116984491Y-127477868D01*
X117087884Y-127535218D01*
X117186430Y-127574798D01*
X117251050Y-127410016D01*
X117167044Y-127372859D01*
X117076575Y-127322779D01*
X116990953Y-127264620D01*
X116921486Y-127201616D01*
X116785783Y-127201616D01*
X116785783Y-128036834D01*
X116587076Y-128036834D01*
X116441233Y-128036834D01*
X116459451Y-127951212D01*
X116450565Y-127877504D01*
X116423909Y-127808239D01*
X116378271Y-127745032D01*
X116312439Y-127689499D01*
X116372213Y-127639418D01*
X116409370Y-127586107D01*
X116435218Y-127469790D01*
X116418255Y-127368821D01*
X116364136Y-127274313D01*
X116265590Y-127204847D01*
X116196930Y-127184249D01*
X116113732Y-127177383D01*
X115984693Y-127195153D01*
X115885137Y-127248465D01*
X115821527Y-127331664D01*
X115800323Y-127439095D01*
X115808804Y-127507956D01*
X115834249Y-127575606D01*
X115877867Y-127637197D01*
X115940872Y-127687884D01*
X115862318Y-127743619D01*
X115810824Y-127804200D01*
X115782351Y-127870436D01*
X115772859Y-127943134D01*
X115633317Y-127943134D01*
X115612666Y-127865751D01*
X115583780Y-127762197D01*
X115554766Y-127662843D01*
X115518720Y-127542841D01*
X115483279Y-127425969D01*
X115448445Y-127312227D01*
X115414216Y-127201616D01*
X115197738Y-127201616D01*
X115162248Y-127313136D01*
X115126858Y-127427989D01*
X115091569Y-127546173D01*
X115056381Y-127667690D01*
X115028433Y-127767884D01*
X115000808Y-127871373D01*
X114973506Y-127978158D01*
X114946527Y-128088239D01*
X114919871Y-128201616D01*
X114890792Y-128201616D01*
X114862294Y-128085460D01*
X114833667Y-127973506D01*
X114804911Y-127865751D01*
X114776026Y-127762197D01*
X114747011Y-127662843D01*
X114710965Y-127542841D01*
X114675525Y-127425969D01*
X114640691Y-127312227D01*
X114606462Y-127201616D01*
X114389984Y-127201616D01*
X114354493Y-127313136D01*
X114319103Y-127427989D01*
X114283815Y-127546173D01*
X114248627Y-127667690D01*
X114220678Y-127767884D01*
X114193053Y-127871373D01*
X114165751Y-127978158D01*
X114138772Y-128088239D01*
X114112116Y-128201616D01*
X113692173Y-128201616D01*
X113647241Y-128164741D01*
X113565504Y-128065145D01*
X113504768Y-127951516D01*
X113467368Y-127828222D01*
X113454739Y-127700000D01*
X113467368Y-127571778D01*
X113504768Y-127448484D01*
X113565504Y-127334855D01*
X113647241Y-127235259D01*
X113746837Y-127153523D01*
X113860466Y-127092787D01*
X113983760Y-127055386D01*
X114111982Y-127042757D01*
X114112116Y-127042757D01*
X122087884Y-127042757D01*
X122088018Y-127042757D01*
X122216240Y-127055386D01*
G37*
%TD*%
M02*
