M48
; DRILL file KiCad 10.0.1 date 2026-06-26T16:38:36
; FORMAT={-:-/ absolute / metric / decimal}
; #@! TF.CreationDate,2026-06-26T16:38:36+09:00
; #@! TF.GenerationSoftware,Kicad,Pcbnew,10.0.1
; #@! TF.FileFunction,Plated,1,2,PTH
FMAT,2
METRIC
; #@! TA.AperFunction,Plated,PTH,ViaDrill
T1C0.300
; #@! TA.AperFunction,Plated,PTH,ViaDrill
T2C0.400
; #@! TA.AperFunction,Plated,PTH,ComponentDrill
T3C0.500
; #@! TA.AperFunction,Plated,PTH,ComponentDrill
T4C0.600
; #@! TA.AperFunction,Plated,PTH,ComponentDrill
T5C0.650
; #@! TA.AperFunction,Plated,PTH,ComponentDrill
T6C0.900
; #@! TA.AperFunction,Plated,PTH,ComponentDrill
T7C1.000
; #@! TA.AperFunction,Plated,PTH,ComponentDrill
T8C2.700
%
G90
G05
T1
X123.15Y-106.55
X123.5Y-105.3
X123.5Y-108.4
X124.384Y-105.359
X125.59Y-109.4
X125.749Y-105.137
X126.916Y-104.184
X127.8Y-118.95
X127.8Y-120.05
X128.13Y-109.4
X129.15Y-118.95
X129.2Y-120.05
X129.8Y-104.25
X130.648Y-101.661
X130.67Y-109.4
X131.9Y-119.45
X131.95Y-104.25
X133.2Y-109.85
X133.25Y-100.75
X133.95Y-104.25
X134.25Y-107.935
X135.375Y-124.15
X135.45Y-100.35
X135.55Y-109.15
X136.0Y-121.5
X136.8Y-113.8
X136.95Y-126.25
X137.6Y-104.0
X137.87Y-122.39
X138.59Y-109.4
X139.85Y-106.75
X140.65Y-117.8
X140.926Y-104.65
X141.0Y-119.564
X141.1Y-113.8
X141.13Y-109.4
X141.18Y-125.82
X141.237Y-118.364
X141.644Y-116.854
X141.866Y-121.815
X142.144Y-114.5
X142.4Y-106.75
X142.637Y-121.6
X142.9Y-104.25
X142.987Y-114.263
X143.15Y-122.45
X143.45Y-119.63
X143.45Y-126.87
X143.65Y-113.794
X143.67Y-109.4
X143.826Y-121.235
X144.347Y-114.205
X144.35Y-121.85
X144.5Y-118.91
X144.6Y-125.65
X144.95Y-106.8
X145.0Y-104.25
X145.0Y-117.25
X146.2Y-101.25
X146.2Y-109.7
X146.3Y-117.864
X146.55Y-111.15
X146.95Y-107.935
X147.55Y-104.65
X147.7Y-115.8
X148.15Y-109.15
X148.75Y-108.5
X149.0Y-117.614
X149.15Y-107.705
X149.22Y-123.37
X150.079Y-120.814
X150.928Y-120.346
X151.25Y-115.65
X151.25Y-118.139
X151.45Y-119.739
X152.15Y-100.35
X152.17Y-114.8
X152.293Y-120.75
X152.84Y-111.01
X159.7Y-97.325
X160.83Y-125.9
X165.4Y-100.6
X165.4Y-101.4
X165.4Y-102.2
X165.4Y-103.0
X165.4Y-103.8
X165.4Y-104.6
X165.4Y-105.4
X166.2Y-100.6
X166.2Y-105.4
X167.0Y-100.6
X167.0Y-105.4
X167.8Y-100.6
X167.8Y-105.4
X168.4Y-102.0
X168.4Y-103.8
X169.8Y-103.0
X171.4Y-105.3
X172.5Y-106.95
X173.7Y-106.95
X174.85Y-105.3
X174.9Y-99.1
X176.15Y-97.8
X176.65Y-110.35
X177.7Y-111.45
X182.1Y-115.75
X182.81Y-111.6
X182.81Y-114.4
X184.3Y-125.5
X184.35Y-123.8
T2
X174.9Y-120.45
X174.9Y-124.644
T3
X184.0Y-106.4
T5
X167.03Y-110.82
X167.03Y-112.09
X167.03Y-113.36
X167.03Y-114.63
X167.03Y-115.9
X168.3Y-110.82
X168.3Y-112.09
X168.3Y-113.36
X168.3Y-114.63
X168.3Y-115.9
T6
X171.014Y-91.5
X173.514Y-91.5
X176.014Y-91.5
X178.514Y-91.5
T7
X117.74Y-95.377
X120.28Y-89.71
X120.28Y-92.25
X120.28Y-95.377
X122.82Y-89.71
X122.82Y-92.25
X122.82Y-95.377
X125.36Y-89.71
X125.36Y-95.377
X127.9Y-89.71
X127.9Y-92.25
X127.9Y-95.377
X130.44Y-89.71
X130.44Y-92.25
X130.44Y-95.377
X132.98Y-89.71
X132.98Y-92.25
X132.98Y-95.377
X135.52Y-89.71
X135.52Y-92.25
X135.52Y-95.377
X138.06Y-89.71
X138.06Y-92.25
X140.6Y-89.71
X140.6Y-92.25
X140.6Y-95.377
X143.14Y-89.71
X143.14Y-92.25
X143.14Y-95.377
X145.68Y-89.71
X145.68Y-92.25
X148.22Y-89.71
X148.22Y-92.25
X150.76Y-89.71
X150.76Y-92.25
X153.3Y-89.71
X153.3Y-92.25
X155.629Y-103.364
X155.629Y-105.904
X155.629Y-108.444
X155.629Y-110.984
X155.629Y-113.524
X155.629Y-116.064
X155.84Y-89.71
X155.84Y-92.25
X158.169Y-103.364
X158.169Y-105.904
X158.169Y-108.444
X158.169Y-110.984
X158.169Y-113.524
X158.169Y-116.064
X158.38Y-89.71
X158.38Y-92.25
X160.92Y-89.71
X160.92Y-92.25
X163.9Y-123.745
X163.9Y-126.285
X167.5Y-123.745
X167.5Y-126.285
X178.514Y-95.1
X179.98Y-101.4
X179.98Y-103.94
X181.054Y-95.1
T8
X107.0Y-120.0
X107.251Y-84.781
X187.946Y-85.252
X188.0Y-120.0
T4
G00X170.574Y-123.284
M15
G01X170.574Y-124.384
M16
G05
G00X170.574Y-127.714
M15
G01X170.574Y-128.314
M16
G05
G00X179.214Y-123.284
M15
G01X179.214Y-124.384
M16
G05
G00X179.214Y-127.714
M15
G01X179.214Y-128.314
M16
G05
T7
G00X116.75Y-116.77
M15
G01X119.25Y-116.77
M16
G05
G00X117.0Y-122.97
M15
G01X119.0Y-122.97
M16
G05
G00X122.7Y-120.97
M15
G01X122.7Y-118.97
M16
G05
M30
